<mxfile host="app.diagrams.net" agent="Mozilla/5.0 (Macintosh; Intel Mac OS X 10_15_7) AppleWebKit/605.1.15 (KHTML, like Gecko) Version/18.3 Safari/605.1.15" version="26.1.0">
  <diagram name="Side-1" id="GHjTUxKBnm4g02ztmZ10">
    <mxGraphModel dx="2897" dy="2509" grid="1" gridSize="10" guides="1" tooltips="1" connect="1" arrows="1" fold="1" page="1" pageScale="1" pageWidth="827" pageHeight="1169" background="none" math="0" shadow="0">
      <root>
        <mxCell id="0" />
        <mxCell id="1" parent="0" />
        <mxCell id="01Cn6UUHRZPfgiZ1-aKv-5" style="edgeStyle=orthogonalEdgeStyle;rounded=0;orthogonalLoop=1;jettySize=auto;html=1;exitX=0.5;exitY=1;exitDx=0;exitDy=0;entryX=0.5;entryY=0;entryDx=0;entryDy=0;" parent="1" source="01Cn6UUHRZPfgiZ1-aKv-2" target="01Cn6UUHRZPfgiZ1-aKv-4" edge="1">
          <mxGeometry relative="1" as="geometry" />
        </mxCell>
        <mxCell id="01Cn6UUHRZPfgiZ1-aKv-2" value="START" style="ellipse;whiteSpace=wrap;html=1;" parent="1" vertex="1">
          <mxGeometry x="360" y="-1160" width="120" height="80" as="geometry" />
        </mxCell>
        <mxCell id="01Cn6UUHRZPfgiZ1-aKv-12" value="" style="edgeStyle=orthogonalEdgeStyle;rounded=0;orthogonalLoop=1;jettySize=auto;html=1;" parent="1" source="01Cn6UUHRZPfgiZ1-aKv-3" target="01Cn6UUHRZPfgiZ1-aKv-11" edge="1">
          <mxGeometry relative="1" as="geometry" />
        </mxCell>
        <mxCell id="01Cn6UUHRZPfgiZ1-aKv-3" value="flyt mus til afslut" style="shape=parallelogram;perimeter=parallelogramPerimeter;whiteSpace=wrap;html=1;fixedSize=1;" parent="1" vertex="1">
          <mxGeometry x="500" y="-1050" width="120" height="60" as="geometry" />
        </mxCell>
        <mxCell id="01Cn6UUHRZPfgiZ1-aKv-6" style="edgeStyle=orthogonalEdgeStyle;rounded=0;orthogonalLoop=1;jettySize=auto;html=1;exitX=1;exitY=0.5;exitDx=0;exitDy=0;entryX=0;entryY=0.5;entryDx=0;entryDy=0;" parent="1" source="01Cn6UUHRZPfgiZ1-aKv-4" target="01Cn6UUHRZPfgiZ1-aKv-3" edge="1">
          <mxGeometry relative="1" as="geometry" />
        </mxCell>
        <mxCell id="01Cn6UUHRZPfgiZ1-aKv-8" style="edgeStyle=orthogonalEdgeStyle;rounded=0;orthogonalLoop=1;jettySize=auto;html=1;entryX=1;entryY=0.5;entryDx=0;entryDy=0;" parent="1" source="01Cn6UUHRZPfgiZ1-aKv-4" target="01Cn6UUHRZPfgiZ1-aKv-7" edge="1">
          <mxGeometry relative="1" as="geometry" />
        </mxCell>
        <mxCell id="01Cn6UUHRZPfgiZ1-aKv-4" value="spil eller afslut" style="rhombus;whiteSpace=wrap;html=1;" parent="1" vertex="1">
          <mxGeometry x="375" y="-1060" width="90" height="80" as="geometry" />
        </mxCell>
        <mxCell id="01Cn6UUHRZPfgiZ1-aKv-21" style="edgeStyle=orthogonalEdgeStyle;rounded=0;orthogonalLoop=1;jettySize=auto;html=1;exitX=0.5;exitY=1;exitDx=0;exitDy=0;entryX=0.5;entryY=0;entryDx=0;entryDy=0;" parent="1" source="01Cn6UUHRZPfgiZ1-aKv-7" target="01Cn6UUHRZPfgiZ1-aKv-20" edge="1">
          <mxGeometry relative="1" as="geometry" />
        </mxCell>
        <mxCell id="01Cn6UUHRZPfgiZ1-aKv-7" value="flyt mus til spil" style="shape=parallelogram;perimeter=parallelogramPerimeter;whiteSpace=wrap;html=1;fixedSize=1;" parent="1" vertex="1">
          <mxGeometry x="220" y="-1050" width="120" height="60" as="geometry" />
        </mxCell>
        <mxCell id="01Cn6UUHRZPfgiZ1-aKv-14" value="" style="edgeStyle=orthogonalEdgeStyle;rounded=0;orthogonalLoop=1;jettySize=auto;html=1;" parent="1" source="01Cn6UUHRZPfgiZ1-aKv-11" target="01Cn6UUHRZPfgiZ1-aKv-13" edge="1">
          <mxGeometry relative="1" as="geometry" />
        </mxCell>
        <mxCell id="01Cn6UUHRZPfgiZ1-aKv-11" value="mus klikket" style="shape=parallelogram;perimeter=parallelogramPerimeter;whiteSpace=wrap;html=1;fixedSize=1;" parent="1" vertex="1">
          <mxGeometry x="500" y="-970" width="120" height="60" as="geometry" />
        </mxCell>
        <mxCell id="01Cn6UUHRZPfgiZ1-aKv-13" value="tjek mus er på afslut" style="whiteSpace=wrap;html=1;" parent="1" vertex="1">
          <mxGeometry x="500" y="-890" width="120" height="60" as="geometry" />
        </mxCell>
        <mxCell id="01Cn6UUHRZPfgiZ1-aKv-16" value="" style="endArrow=none;html=1;rounded=0;exitX=1;exitY=0.5;exitDx=0;exitDy=0;" parent="1" source="01Cn6UUHRZPfgiZ1-aKv-13" edge="1">
          <mxGeometry width="50" height="50" relative="1" as="geometry">
            <mxPoint x="450" y="-930" as="sourcePoint" />
            <mxPoint x="680" y="-1020" as="targetPoint" />
            <Array as="points">
              <mxPoint x="680" y="-860" />
            </Array>
          </mxGeometry>
        </mxCell>
        <mxCell id="01Cn6UUHRZPfgiZ1-aKv-18" value="" style="endArrow=classic;html=1;rounded=0;" parent="1" edge="1">
          <mxGeometry width="50" height="50" relative="1" as="geometry">
            <mxPoint x="680" y="-1020" as="sourcePoint" />
            <mxPoint x="610" y="-1020" as="targetPoint" />
          </mxGeometry>
        </mxCell>
        <mxCell id="01Cn6UUHRZPfgiZ1-aKv-19" value="nej" style="text;html=1;align=center;verticalAlign=middle;whiteSpace=wrap;rounded=0;" parent="1" vertex="1">
          <mxGeometry x="620" y="-890" width="60" height="30" as="geometry" />
        </mxCell>
        <mxCell id="01Cn6UUHRZPfgiZ1-aKv-23" style="edgeStyle=orthogonalEdgeStyle;rounded=0;orthogonalLoop=1;jettySize=auto;html=1;exitX=0.5;exitY=1;exitDx=0;exitDy=0;entryX=0.5;entryY=0;entryDx=0;entryDy=0;" parent="1" source="01Cn6UUHRZPfgiZ1-aKv-20" target="01Cn6UUHRZPfgiZ1-aKv-22" edge="1">
          <mxGeometry relative="1" as="geometry" />
        </mxCell>
        <mxCell id="01Cn6UUHRZPfgiZ1-aKv-20" value="mus klikket" style="shape=parallelogram;perimeter=parallelogramPerimeter;whiteSpace=wrap;html=1;fixedSize=1;" parent="1" vertex="1">
          <mxGeometry x="200" y="-970" width="120" height="60" as="geometry" />
        </mxCell>
        <mxCell id="01Cn6UUHRZPfgiZ1-aKv-24" style="edgeStyle=orthogonalEdgeStyle;rounded=0;orthogonalLoop=1;jettySize=auto;html=1;exitX=0;exitY=0.5;exitDx=0;exitDy=0;entryX=0;entryY=0.5;entryDx=0;entryDy=0;" parent="1" source="01Cn6UUHRZPfgiZ1-aKv-22" target="01Cn6UUHRZPfgiZ1-aKv-7" edge="1">
          <mxGeometry relative="1" as="geometry">
            <Array as="points">
              <mxPoint x="160" y="-850" />
              <mxPoint x="160" y="-1020" />
            </Array>
          </mxGeometry>
        </mxCell>
        <mxCell id="01Cn6UUHRZPfgiZ1-aKv-28" value="" style="edgeStyle=orthogonalEdgeStyle;rounded=0;orthogonalLoop=1;jettySize=auto;html=1;" parent="1" source="01Cn6UUHRZPfgiZ1-aKv-22" target="01Cn6UUHRZPfgiZ1-aKv-27" edge="1">
          <mxGeometry relative="1" as="geometry" />
        </mxCell>
        <mxCell id="01Cn6UUHRZPfgiZ1-aKv-22" value="tjek mus er på afslut" style="whiteSpace=wrap;html=1;" parent="1" vertex="1">
          <mxGeometry x="200" y="-890" width="120" height="60" as="geometry" />
        </mxCell>
        <mxCell id="01Cn6UUHRZPfgiZ1-aKv-25" value="nej" style="text;html=1;align=center;verticalAlign=middle;whiteSpace=wrap;rounded=0;" parent="1" vertex="1">
          <mxGeometry x="150" y="-875" width="60" height="30" as="geometry" />
        </mxCell>
        <mxCell id="01Cn6UUHRZPfgiZ1-aKv-40" style="edgeStyle=orthogonalEdgeStyle;rounded=0;orthogonalLoop=1;jettySize=auto;html=1;exitX=0.5;exitY=1;exitDx=0;exitDy=0;" parent="1" source="01Cn6UUHRZPfgiZ1-aKv-27" target="01Cn6UUHRZPfgiZ1-aKv-31" edge="1">
          <mxGeometry relative="1" as="geometry" />
        </mxCell>
        <mxCell id="01Cn6UUHRZPfgiZ1-aKv-41" style="edgeStyle=orthogonalEdgeStyle;rounded=0;orthogonalLoop=1;jettySize=auto;html=1;exitX=0.5;exitY=1;exitDx=0;exitDy=0;entryX=0.5;entryY=0;entryDx=0;entryDy=0;" parent="1" source="01Cn6UUHRZPfgiZ1-aKv-27" target="01Cn6UUHRZPfgiZ1-aKv-33" edge="1">
          <mxGeometry relative="1" as="geometry" />
        </mxCell>
        <mxCell id="01Cn6UUHRZPfgiZ1-aKv-42" style="edgeStyle=orthogonalEdgeStyle;rounded=0;orthogonalLoop=1;jettySize=auto;html=1;exitX=0.5;exitY=1;exitDx=0;exitDy=0;" parent="1" source="01Cn6UUHRZPfgiZ1-aKv-27" target="01Cn6UUHRZPfgiZ1-aKv-34" edge="1">
          <mxGeometry relative="1" as="geometry" />
        </mxCell>
        <mxCell id="01Cn6UUHRZPfgiZ1-aKv-43" style="edgeStyle=orthogonalEdgeStyle;rounded=0;orthogonalLoop=1;jettySize=auto;html=1;exitX=0.5;exitY=1;exitDx=0;exitDy=0;entryX=0.5;entryY=0;entryDx=0;entryDy=0;" parent="1" source="01Cn6UUHRZPfgiZ1-aKv-27" target="01Cn6UUHRZPfgiZ1-aKv-35" edge="1">
          <mxGeometry relative="1" as="geometry" />
        </mxCell>
        <mxCell id="01Cn6UUHRZPfgiZ1-aKv-44" style="edgeStyle=orthogonalEdgeStyle;rounded=0;orthogonalLoop=1;jettySize=auto;html=1;exitX=0.5;exitY=1;exitDx=0;exitDy=0;" parent="1" source="01Cn6UUHRZPfgiZ1-aKv-27" target="01Cn6UUHRZPfgiZ1-aKv-37" edge="1">
          <mxGeometry relative="1" as="geometry" />
        </mxCell>
        <mxCell id="01Cn6UUHRZPfgiZ1-aKv-45" style="edgeStyle=orthogonalEdgeStyle;rounded=0;orthogonalLoop=1;jettySize=auto;html=1;exitX=0.5;exitY=1;exitDx=0;exitDy=0;" parent="1" source="01Cn6UUHRZPfgiZ1-aKv-27" target="01Cn6UUHRZPfgiZ1-aKv-38" edge="1">
          <mxGeometry relative="1" as="geometry" />
        </mxCell>
        <mxCell id="01Cn6UUHRZPfgiZ1-aKv-46" style="edgeStyle=orthogonalEdgeStyle;rounded=0;orthogonalLoop=1;jettySize=auto;html=1;exitX=0.5;exitY=1;exitDx=0;exitDy=0;" parent="1" source="01Cn6UUHRZPfgiZ1-aKv-27" target="01Cn6UUHRZPfgiZ1-aKv-39" edge="1">
          <mxGeometry relative="1" as="geometry" />
        </mxCell>
        <mxCell id="01Cn6UUHRZPfgiZ1-aKv-27" value="Spilet starter" style="whiteSpace=wrap;html=1;" parent="1" vertex="1">
          <mxGeometry x="354" y="-820" width="120" height="60" as="geometry" />
        </mxCell>
        <mxCell id="01Cn6UUHRZPfgiZ1-aKv-29" value="ja" style="text;html=1;align=center;verticalAlign=middle;whiteSpace=wrap;rounded=0;" parent="1" vertex="1">
          <mxGeometry x="300" y="-890" width="60" height="30" as="geometry" />
        </mxCell>
        <mxCell id="01Cn6UUHRZPfgiZ1-aKv-48" value="" style="edgeStyle=orthogonalEdgeStyle;rounded=0;orthogonalLoop=1;jettySize=auto;html=1;" parent="1" source="01Cn6UUHRZPfgiZ1-aKv-31" target="01Cn6UUHRZPfgiZ1-aKv-47" edge="1">
          <mxGeometry relative="1" as="geometry" />
        </mxCell>
        <mxCell id="01Cn6UUHRZPfgiZ1-aKv-31" value="a bliver trykke" style="shape=parallelogram;perimeter=parallelogramPerimeter;whiteSpace=wrap;html=1;fixedSize=1;" parent="1" vertex="1">
          <mxGeometry x="-50" y="-710" width="120" height="60" as="geometry" />
        </mxCell>
        <mxCell id="01Cn6UUHRZPfgiZ1-aKv-33" value="d bliver trykke" style="shape=parallelogram;perimeter=parallelogramPerimeter;whiteSpace=wrap;html=1;fixedSize=1;" parent="1" vertex="1">
          <mxGeometry x="70" y="-710" width="120" height="60" as="geometry" />
        </mxCell>
        <mxCell id="01Cn6UUHRZPfgiZ1-aKv-34" value="x bliver trykke" style="shape=parallelogram;perimeter=parallelogramPerimeter;whiteSpace=wrap;html=1;fixedSize=1;" parent="1" vertex="1">
          <mxGeometry x="190" y="-710" width="120" height="60" as="geometry" />
        </mxCell>
        <mxCell id="01Cn6UUHRZPfgiZ1-aKv-35" value="a bliver dobbelt trykke" style="shape=parallelogram;perimeter=parallelogramPerimeter;whiteSpace=wrap;html=1;fixedSize=1;" parent="1" vertex="1">
          <mxGeometry x="310" y="-710" width="140" height="60" as="geometry" />
        </mxCell>
        <mxCell id="01Cn6UUHRZPfgiZ1-aKv-37" value="d bliver dobbelt trykke" style="shape=parallelogram;perimeter=parallelogramPerimeter;whiteSpace=wrap;html=1;fixedSize=1;" parent="1" vertex="1">
          <mxGeometry x="450" y="-710" width="140" height="60" as="geometry" />
        </mxCell>
        <mxCell id="01Cn6UUHRZPfgiZ1-aKv-38" value="mellemrum bliver trykke" style="shape=parallelogram;perimeter=parallelogramPerimeter;whiteSpace=wrap;html=1;fixedSize=1;" parent="1" vertex="1">
          <mxGeometry x="590" y="-710" width="150" height="60" as="geometry" />
        </mxCell>
        <mxCell id="01Cn6UUHRZPfgiZ1-aKv-39" value="escep bliver trykke" style="shape=parallelogram;perimeter=parallelogramPerimeter;whiteSpace=wrap;html=1;fixedSize=1;" parent="1" vertex="1">
          <mxGeometry x="740" y="-710" width="150" height="60" as="geometry" />
        </mxCell>
        <mxCell id="01Cn6UUHRZPfgiZ1-aKv-47" value="character gå til venstre" style="whiteSpace=wrap;html=1;" parent="1" vertex="1">
          <mxGeometry x="-70" y="-600" width="120" height="60" as="geometry" />
        </mxCell>
        <mxCell id="01Cn6UUHRZPfgiZ1-aKv-49" value="character gå til højere" style="whiteSpace=wrap;html=1;" parent="1" vertex="1">
          <mxGeometry x="60" y="-600" width="120" height="60" as="geometry" />
        </mxCell>
        <mxCell id="01Cn6UUHRZPfgiZ1-aKv-52" value="character gå til andgriber" style="whiteSpace=wrap;html=1;" parent="1" vertex="1">
          <mxGeometry x="190" y="-600" width="120" height="60" as="geometry" />
        </mxCell>
        <mxCell id="Bi03TDWfDMKd8-1LbUZK-4" value="" style="edgeStyle=orthogonalEdgeStyle;rounded=0;orthogonalLoop=1;jettySize=auto;html=1;" edge="1" parent="1" source="Bi03TDWfDMKd8-1LbUZK-1">
          <mxGeometry relative="1" as="geometry">
            <mxPoint x="1670" y="-1050" as="targetPoint" />
          </mxGeometry>
        </mxCell>
        <mxCell id="Bi03TDWfDMKd8-1LbUZK-1" value="START" style="ellipse;whiteSpace=wrap;html=1;" vertex="1" parent="1">
          <mxGeometry x="1610" y="-1169" width="120" height="80" as="geometry" />
        </mxCell>
        <mxCell id="Bi03TDWfDMKd8-1LbUZK-24" style="edgeStyle=orthogonalEdgeStyle;rounded=0;orthogonalLoop=1;jettySize=auto;html=1;exitX=0.5;exitY=1;exitDx=0;exitDy=0;entryX=0.5;entryY=0;entryDx=0;entryDy=0;" edge="1" parent="1">
          <mxGeometry relative="1" as="geometry">
            <mxPoint x="1670" y="-990" as="sourcePoint" />
            <mxPoint x="1670" y="-935" as="targetPoint" />
          </mxGeometry>
        </mxCell>
        <mxCell id="Bi03TDWfDMKd8-1LbUZK-7" value="SLUT" style="ellipse;whiteSpace=wrap;html=1;" vertex="1" parent="1">
          <mxGeometry x="1270" y="-1169" width="120" height="80" as="geometry" />
        </mxCell>
        <mxCell id="Bi03TDWfDMKd8-1LbUZK-9" value="ja" style="text;html=1;align=center;verticalAlign=middle;whiteSpace=wrap;rounded=0;" vertex="1" parent="1">
          <mxGeometry x="1420" y="-1050" width="60" height="30" as="geometry" />
        </mxCell>
        <mxCell id="Bi03TDWfDMKd8-1LbUZK-12" style="edgeStyle=orthogonalEdgeStyle;rounded=0;orthogonalLoop=1;jettySize=auto;html=1;exitX=0;exitY=0.5;exitDx=0;exitDy=0;entryX=0.5;entryY=1;entryDx=0;entryDy=0;" edge="1" parent="1" source="Bi03TDWfDMKd8-1LbUZK-44" target="Bi03TDWfDMKd8-1LbUZK-7">
          <mxGeometry relative="1" as="geometry">
            <mxPoint x="1460" y="-1020" as="sourcePoint" />
          </mxGeometry>
        </mxCell>
        <mxCell id="Bi03TDWfDMKd8-1LbUZK-27" style="edgeStyle=orthogonalEdgeStyle;rounded=0;orthogonalLoop=1;jettySize=auto;html=1;entryX=1;entryY=0.5;entryDx=0;entryDy=0;exitX=0;exitY=0.5;exitDx=0;exitDy=0;" edge="1" parent="1" source="Bi03TDWfDMKd8-1LbUZK-45" target="Bi03TDWfDMKd8-1LbUZK-47">
          <mxGeometry relative="1" as="geometry">
            <mxPoint x="1620" y="-900" as="sourcePoint" />
            <mxPoint x="1580" y="-905" as="targetPoint" />
          </mxGeometry>
        </mxCell>
        <mxCell id="Bi03TDWfDMKd8-1LbUZK-29" style="edgeStyle=orthogonalEdgeStyle;rounded=0;orthogonalLoop=1;jettySize=auto;html=1;exitX=1;exitY=0.5;exitDx=0;exitDy=0;" edge="1" parent="1" source="Bi03TDWfDMKd8-1LbUZK-45">
          <mxGeometry relative="1" as="geometry">
            <mxPoint x="1670" y="-1050" as="targetPoint" />
            <mxPoint x="1730" y="-905" as="sourcePoint" />
            <Array as="points">
              <mxPoint x="1718" y="-905" />
              <mxPoint x="1770" y="-905" />
              <mxPoint x="1770" y="-1070" />
              <mxPoint x="1670" y="-1070" />
            </Array>
          </mxGeometry>
        </mxCell>
        <mxCell id="Bi03TDWfDMKd8-1LbUZK-20" value="" style="edgeStyle=orthogonalEdgeStyle;rounded=0;orthogonalLoop=1;jettySize=auto;html=1;exitX=0.5;exitY=0;exitDx=0;exitDy=0;" edge="1" parent="1">
          <mxGeometry relative="1" as="geometry">
            <mxPoint x="1670" y="-1050" as="targetPoint" />
            <mxPoint x="1520" y="-1050" as="sourcePoint" />
            <Array as="points">
              <mxPoint x="1520" y="-1070" />
              <mxPoint x="1670" y="-1070" />
            </Array>
          </mxGeometry>
        </mxCell>
        <mxCell id="Bi03TDWfDMKd8-1LbUZK-21" value="nej" style="text;html=1;align=center;verticalAlign=middle;whiteSpace=wrap;rounded=0;" vertex="1" parent="1">
          <mxGeometry x="1510" y="-1100" width="60" height="30" as="geometry" />
        </mxCell>
        <mxCell id="Bi03TDWfDMKd8-1LbUZK-25" value="nej" style="text;html=1;align=center;verticalAlign=middle;whiteSpace=wrap;rounded=0;" vertex="1" parent="1">
          <mxGeometry x="1654" y="-980" width="60" height="30" as="geometry" />
        </mxCell>
        <mxCell id="Bi03TDWfDMKd8-1LbUZK-35" style="edgeStyle=orthogonalEdgeStyle;rounded=0;orthogonalLoop=1;jettySize=auto;html=1;exitX=0.5;exitY=1;exitDx=0;exitDy=0;entryX=0.5;entryY=0;entryDx=0;entryDy=0;" edge="1" parent="1">
          <mxGeometry relative="1" as="geometry">
            <mxPoint x="1520" y="-875" as="sourcePoint" />
            <mxPoint x="1670" y="-1050" as="targetPoint" />
            <Array as="points">
              <mxPoint x="1520" y="-855" />
              <mxPoint x="1770" y="-855" />
              <mxPoint x="1770" y="-1070" />
              <mxPoint x="1670" y="-1070" />
            </Array>
          </mxGeometry>
        </mxCell>
        <mxCell id="Bi03TDWfDMKd8-1LbUZK-28" value="ja" style="text;html=1;align=center;verticalAlign=middle;whiteSpace=wrap;rounded=0;" vertex="1" parent="1">
          <mxGeometry x="1570" y="-940" width="60" height="30" as="geometry" />
        </mxCell>
        <mxCell id="Bi03TDWfDMKd8-1LbUZK-30" value="nej" style="text;html=1;align=center;verticalAlign=middle;whiteSpace=wrap;rounded=0;" vertex="1" parent="1">
          <mxGeometry x="1710" y="-935" width="60" height="30" as="geometry" />
        </mxCell>
        <mxCell id="Bi03TDWfDMKd8-1LbUZK-52" style="edgeStyle=orthogonalEdgeStyle;rounded=0;orthogonalLoop=1;jettySize=auto;html=1;exitX=0.5;exitY=1;exitDx=0;exitDy=0;entryX=0.5;entryY=0;entryDx=0;entryDy=0;" edge="1" parent="1" source="Bi03TDWfDMKd8-1LbUZK-31" target="Bi03TDWfDMKd8-1LbUZK-51">
          <mxGeometry relative="1" as="geometry" />
        </mxCell>
        <mxCell id="Bi03TDWfDMKd8-1LbUZK-31" value="Spilet starter" style="rounded=0;whiteSpace=wrap;html=1;" vertex="1" parent="1">
          <mxGeometry x="1310" y="-940" width="120" height="60" as="geometry" />
        </mxCell>
        <mxCell id="Bi03TDWfDMKd8-1LbUZK-42" style="edgeStyle=orthogonalEdgeStyle;rounded=0;orthogonalLoop=1;jettySize=auto;html=1;exitX=0;exitY=0.5;exitDx=0;exitDy=0;entryX=1;entryY=0.5;entryDx=0;entryDy=0;" edge="1" parent="1" source="Bi03TDWfDMKd8-1LbUZK-40" target="Bi03TDWfDMKd8-1LbUZK-44">
          <mxGeometry relative="1" as="geometry">
            <mxPoint x="1580" y="-1020" as="targetPoint" />
          </mxGeometry>
        </mxCell>
        <mxCell id="Bi03TDWfDMKd8-1LbUZK-40" value="er musen på afslut" style="rhombus;whiteSpace=wrap;html=1;" vertex="1" parent="1">
          <mxGeometry x="1622.5" y="-1050" width="95" height="70" as="geometry" />
        </mxCell>
        <mxCell id="Bi03TDWfDMKd8-1LbUZK-43" value="ja" style="text;html=1;align=center;verticalAlign=middle;whiteSpace=wrap;rounded=0;" vertex="1" parent="1">
          <mxGeometry x="1570" y="-1050" width="60" height="30" as="geometry" />
        </mxCell>
        <mxCell id="Bi03TDWfDMKd8-1LbUZK-44" value="bliver musen klikket" style="rhombus;whiteSpace=wrap;html=1;" vertex="1" parent="1">
          <mxGeometry x="1470" y="-1060" width="100" height="80" as="geometry" />
        </mxCell>
        <mxCell id="Bi03TDWfDMKd8-1LbUZK-45" value="er musen på afslut" style="rhombus;whiteSpace=wrap;html=1;" vertex="1" parent="1">
          <mxGeometry x="1622.5" y="-940" width="95" height="70" as="geometry" />
        </mxCell>
        <mxCell id="Bi03TDWfDMKd8-1LbUZK-48" style="edgeStyle=orthogonalEdgeStyle;rounded=0;orthogonalLoop=1;jettySize=auto;html=1;exitX=0;exitY=0.5;exitDx=0;exitDy=0;" edge="1" parent="1" source="Bi03TDWfDMKd8-1LbUZK-47" target="Bi03TDWfDMKd8-1LbUZK-31">
          <mxGeometry relative="1" as="geometry" />
        </mxCell>
        <mxCell id="Bi03TDWfDMKd8-1LbUZK-47" value="bliver musen klikket" style="rhombus;whiteSpace=wrap;html=1;" vertex="1" parent="1">
          <mxGeometry x="1470" y="-950" width="100" height="80" as="geometry" />
        </mxCell>
        <mxCell id="Bi03TDWfDMKd8-1LbUZK-49" value="nej" style="text;html=1;align=center;verticalAlign=middle;whiteSpace=wrap;rounded=0;" vertex="1" parent="1">
          <mxGeometry x="1520" y="-880" width="60" height="30" as="geometry" />
        </mxCell>
        <mxCell id="Bi03TDWfDMKd8-1LbUZK-50" value="ja" style="text;html=1;align=center;verticalAlign=middle;whiteSpace=wrap;rounded=0;" vertex="1" parent="1">
          <mxGeometry x="1430" y="-935" width="60" height="30" as="geometry" />
        </mxCell>
        <mxCell id="Bi03TDWfDMKd8-1LbUZK-100" style="edgeStyle=orthogonalEdgeStyle;rounded=0;orthogonalLoop=1;jettySize=auto;html=1;exitX=0.5;exitY=1;exitDx=0;exitDy=0;entryX=0.5;entryY=0;entryDx=0;entryDy=0;" edge="1" parent="1" target="Bi03TDWfDMKd8-1LbUZK-62">
          <mxGeometry relative="1" as="geometry">
            <mxPoint x="1370" y="-610.06" as="sourcePoint" />
          </mxGeometry>
        </mxCell>
        <mxCell id="Bi03TDWfDMKd8-1LbUZK-165" value="" style="edgeStyle=orthogonalEdgeStyle;rounded=0;orthogonalLoop=1;jettySize=auto;html=1;" edge="1" parent="1" source="Bi03TDWfDMKd8-1LbUZK-51" target="Bi03TDWfDMKd8-1LbUZK-164">
          <mxGeometry relative="1" as="geometry" />
        </mxCell>
        <mxCell id="Bi03TDWfDMKd8-1LbUZK-51" value="bliver esc trykket" style="rhombus;whiteSpace=wrap;html=1;" vertex="1" parent="1">
          <mxGeometry x="1315" y="-810" width="110" height="90" as="geometry" />
        </mxCell>
        <mxCell id="Bi03TDWfDMKd8-1LbUZK-57" value="" style="endArrow=none;html=1;rounded=0;exitX=1;exitY=0.5;exitDx=0;exitDy=0;" edge="1" parent="1" source="Bi03TDWfDMKd8-1LbUZK-51">
          <mxGeometry width="50" height="50" relative="1" as="geometry">
            <mxPoint x="1580" y="-765" as="sourcePoint" />
            <mxPoint x="1770" y="-860" as="targetPoint" />
            <Array as="points">
              <mxPoint x="1770" y="-765" />
            </Array>
          </mxGeometry>
        </mxCell>
        <mxCell id="Bi03TDWfDMKd8-1LbUZK-61" value="ja" style="text;html=1;align=center;verticalAlign=middle;whiteSpace=wrap;rounded=0;" vertex="1" parent="1">
          <mxGeometry x="1410" y="-805" width="60" height="30" as="geometry" />
        </mxCell>
        <mxCell id="Bi03TDWfDMKd8-1LbUZK-69" value="" style="edgeStyle=orthogonalEdgeStyle;rounded=0;orthogonalLoop=1;jettySize=auto;html=1;" edge="1" parent="1" source="Bi03TDWfDMKd8-1LbUZK-62" target="Bi03TDWfDMKd8-1LbUZK-68">
          <mxGeometry relative="1" as="geometry" />
        </mxCell>
        <mxCell id="Bi03TDWfDMKd8-1LbUZK-101" style="edgeStyle=orthogonalEdgeStyle;rounded=0;orthogonalLoop=1;jettySize=auto;html=1;exitX=0.5;exitY=1;exitDx=0;exitDy=0;entryX=0.5;entryY=0;entryDx=0;entryDy=0;" edge="1" parent="1" source="Bi03TDWfDMKd8-1LbUZK-62" target="Bi03TDWfDMKd8-1LbUZK-63">
          <mxGeometry relative="1" as="geometry" />
        </mxCell>
        <mxCell id="Bi03TDWfDMKd8-1LbUZK-62" value="bliver a trykket" style="rhombus;whiteSpace=wrap;html=1;" vertex="1" parent="1">
          <mxGeometry x="1315" y="-590.06" width="110" height="90" as="geometry" />
        </mxCell>
        <mxCell id="Bi03TDWfDMKd8-1LbUZK-72" value="" style="edgeStyle=orthogonalEdgeStyle;rounded=0;orthogonalLoop=1;jettySize=auto;html=1;" edge="1" parent="1" source="Bi03TDWfDMKd8-1LbUZK-63" target="Bi03TDWfDMKd8-1LbUZK-71">
          <mxGeometry relative="1" as="geometry" />
        </mxCell>
        <mxCell id="Bi03TDWfDMKd8-1LbUZK-102" style="edgeStyle=orthogonalEdgeStyle;rounded=0;orthogonalLoop=1;jettySize=auto;html=1;exitX=0.5;exitY=1;exitDx=0;exitDy=0;entryX=0.5;entryY=0;entryDx=0;entryDy=0;" edge="1" parent="1" source="Bi03TDWfDMKd8-1LbUZK-63" target="Bi03TDWfDMKd8-1LbUZK-64">
          <mxGeometry relative="1" as="geometry" />
        </mxCell>
        <mxCell id="Bi03TDWfDMKd8-1LbUZK-63" value="bliver d trykket" style="rhombus;whiteSpace=wrap;html=1;" vertex="1" parent="1">
          <mxGeometry x="1315" y="-474.56" width="110" height="90" as="geometry" />
        </mxCell>
        <mxCell id="Bi03TDWfDMKd8-1LbUZK-74" value="" style="edgeStyle=orthogonalEdgeStyle;rounded=0;orthogonalLoop=1;jettySize=auto;html=1;" edge="1" parent="1" source="Bi03TDWfDMKd8-1LbUZK-64" target="Bi03TDWfDMKd8-1LbUZK-73">
          <mxGeometry relative="1" as="geometry" />
        </mxCell>
        <mxCell id="Bi03TDWfDMKd8-1LbUZK-112" style="edgeStyle=orthogonalEdgeStyle;rounded=0;orthogonalLoop=1;jettySize=auto;html=1;exitX=0.5;exitY=1;exitDx=0;exitDy=0;entryX=0.5;entryY=0;entryDx=0;entryDy=0;" edge="1" parent="1" source="Bi03TDWfDMKd8-1LbUZK-64" target="Bi03TDWfDMKd8-1LbUZK-65">
          <mxGeometry relative="1" as="geometry" />
        </mxCell>
        <mxCell id="Bi03TDWfDMKd8-1LbUZK-64" value="bliver x trykket" style="rhombus;whiteSpace=wrap;html=1;" vertex="1" parent="1">
          <mxGeometry x="1315" y="-360.06" width="110" height="90" as="geometry" />
        </mxCell>
        <mxCell id="Bi03TDWfDMKd8-1LbUZK-87" style="edgeStyle=orthogonalEdgeStyle;rounded=0;orthogonalLoop=1;jettySize=auto;html=1;exitX=1;exitY=0.5;exitDx=0;exitDy=0;entryX=0;entryY=0.5;entryDx=0;entryDy=0;" edge="1" parent="1" source="Bi03TDWfDMKd8-1LbUZK-65" target="Bi03TDWfDMKd8-1LbUZK-75">
          <mxGeometry relative="1" as="geometry" />
        </mxCell>
        <mxCell id="Bi03TDWfDMKd8-1LbUZK-116" style="edgeStyle=orthogonalEdgeStyle;rounded=0;orthogonalLoop=1;jettySize=auto;html=1;exitX=0.5;exitY=1;exitDx=0;exitDy=0;entryX=0.5;entryY=0;entryDx=0;entryDy=0;" edge="1" parent="1" source="Bi03TDWfDMKd8-1LbUZK-65" target="Bi03TDWfDMKd8-1LbUZK-66">
          <mxGeometry relative="1" as="geometry" />
        </mxCell>
        <mxCell id="Bi03TDWfDMKd8-1LbUZK-65" value="bliver a dobbelt trykket" style="rhombus;whiteSpace=wrap;html=1;" vertex="1" parent="1">
          <mxGeometry x="1315" y="-250.06" width="110" height="90" as="geometry" />
        </mxCell>
        <mxCell id="Bi03TDWfDMKd8-1LbUZK-78" value="" style="edgeStyle=orthogonalEdgeStyle;rounded=0;orthogonalLoop=1;jettySize=auto;html=1;" edge="1" parent="1" source="Bi03TDWfDMKd8-1LbUZK-66" target="Bi03TDWfDMKd8-1LbUZK-77">
          <mxGeometry relative="1" as="geometry" />
        </mxCell>
        <mxCell id="Bi03TDWfDMKd8-1LbUZK-105" style="edgeStyle=orthogonalEdgeStyle;rounded=0;orthogonalLoop=1;jettySize=auto;html=1;exitX=0.5;exitY=1;exitDx=0;exitDy=0;entryX=0.5;entryY=0;entryDx=0;entryDy=0;" edge="1" parent="1" source="Bi03TDWfDMKd8-1LbUZK-66" target="Bi03TDWfDMKd8-1LbUZK-67">
          <mxGeometry relative="1" as="geometry" />
        </mxCell>
        <mxCell id="Bi03TDWfDMKd8-1LbUZK-66" value="bliver d dobbelt trykket" style="rhombus;whiteSpace=wrap;html=1;" vertex="1" parent="1">
          <mxGeometry x="1315" y="-140.06" width="110" height="90" as="geometry" />
        </mxCell>
        <mxCell id="Bi03TDWfDMKd8-1LbUZK-80" value="" style="edgeStyle=orthogonalEdgeStyle;rounded=0;orthogonalLoop=1;jettySize=auto;html=1;" edge="1" parent="1" source="Bi03TDWfDMKd8-1LbUZK-67" target="Bi03TDWfDMKd8-1LbUZK-79">
          <mxGeometry relative="1" as="geometry" />
        </mxCell>
        <mxCell id="Bi03TDWfDMKd8-1LbUZK-67" value="bliver mellemrum trykket" style="rhombus;whiteSpace=wrap;html=1;" vertex="1" parent="1">
          <mxGeometry x="1315" y="-20.060000000000002" width="110" height="90" as="geometry" />
        </mxCell>
        <mxCell id="Bi03TDWfDMKd8-1LbUZK-90" style="edgeStyle=orthogonalEdgeStyle;rounded=0;orthogonalLoop=1;jettySize=auto;html=1;exitX=1;exitY=0.5;exitDx=0;exitDy=0;" edge="1" parent="1" source="Bi03TDWfDMKd8-1LbUZK-68">
          <mxGeometry relative="1" as="geometry">
            <mxPoint x="1370" y="-810" as="targetPoint" />
            <Array as="points">
              <mxPoint x="1600" y="-545" />
              <mxPoint x="1600" y="90" />
              <mxPoint x="1250" y="90" />
              <mxPoint x="1250" y="-840" />
              <mxPoint x="1370" y="-840" />
            </Array>
          </mxGeometry>
        </mxCell>
        <mxCell id="Bi03TDWfDMKd8-1LbUZK-68" value="Karakteren går til venstre" style="whiteSpace=wrap;html=1;" vertex="1" parent="1">
          <mxGeometry x="1460" y="-575.06" width="120" height="60" as="geometry" />
        </mxCell>
        <mxCell id="Bi03TDWfDMKd8-1LbUZK-71" value="Karakteren går til højere" style="whiteSpace=wrap;html=1;" vertex="1" parent="1">
          <mxGeometry x="1460" y="-459.56" width="120" height="60" as="geometry" />
        </mxCell>
        <mxCell id="Bi03TDWfDMKd8-1LbUZK-132" style="edgeStyle=orthogonalEdgeStyle;rounded=0;orthogonalLoop=1;jettySize=auto;html=1;exitX=1;exitY=0.5;exitDx=0;exitDy=0;dashed=1;" edge="1" parent="1" source="Bi03TDWfDMKd8-1LbUZK-73" target="Bi03TDWfDMKd8-1LbUZK-128">
          <mxGeometry relative="1" as="geometry" />
        </mxCell>
        <mxCell id="Bi03TDWfDMKd8-1LbUZK-73" value="karakteren angriber" style="whiteSpace=wrap;html=1;" vertex="1" parent="1">
          <mxGeometry x="1460" y="-345.06" width="120" height="60" as="geometry" />
        </mxCell>
        <mxCell id="Bi03TDWfDMKd8-1LbUZK-75" value="karakteren dasher til venstre" style="whiteSpace=wrap;html=1;" vertex="1" parent="1">
          <mxGeometry x="1460" y="-235.06" width="120" height="60" as="geometry" />
        </mxCell>
        <mxCell id="Bi03TDWfDMKd8-1LbUZK-77" value="karakteren dasher til højere" style="whiteSpace=wrap;html=1;" vertex="1" parent="1">
          <mxGeometry x="1460" y="-125.06" width="120" height="60" as="geometry" />
        </mxCell>
        <mxCell id="Bi03TDWfDMKd8-1LbUZK-79" value="karakteren hopper" style="whiteSpace=wrap;html=1;" vertex="1" parent="1">
          <mxGeometry x="1460" y="-5.060000000000002" width="120" height="60" as="geometry" />
        </mxCell>
        <mxCell id="Bi03TDWfDMKd8-1LbUZK-81" value="ja" style="text;html=1;align=center;verticalAlign=middle;whiteSpace=wrap;rounded=0;" vertex="1" parent="1">
          <mxGeometry x="1410" y="-570.06" width="60" height="30" as="geometry" />
        </mxCell>
        <mxCell id="Bi03TDWfDMKd8-1LbUZK-82" value="ja" style="text;html=1;align=center;verticalAlign=middle;whiteSpace=wrap;rounded=0;" vertex="1" parent="1">
          <mxGeometry x="1410" y="-459.56" width="60" height="30" as="geometry" />
        </mxCell>
        <mxCell id="Bi03TDWfDMKd8-1LbUZK-83" value="ja" style="text;html=1;align=center;verticalAlign=middle;whiteSpace=wrap;rounded=0;" vertex="1" parent="1">
          <mxGeometry x="1410" y="-340.06" width="60" height="30" as="geometry" />
        </mxCell>
        <mxCell id="Bi03TDWfDMKd8-1LbUZK-86" value="ja" style="text;html=1;align=center;verticalAlign=middle;whiteSpace=wrap;rounded=0;" vertex="1" parent="1">
          <mxGeometry x="1410" y="-125.06" width="60" height="30" as="geometry" />
        </mxCell>
        <mxCell id="Bi03TDWfDMKd8-1LbUZK-88" value="ja" style="text;html=1;align=center;verticalAlign=middle;whiteSpace=wrap;rounded=0;" vertex="1" parent="1">
          <mxGeometry x="1410" y="-235.06" width="60" height="30" as="geometry" />
        </mxCell>
        <mxCell id="Bi03TDWfDMKd8-1LbUZK-89" value="ja" style="text;html=1;align=center;verticalAlign=middle;whiteSpace=wrap;rounded=0;" vertex="1" parent="1">
          <mxGeometry x="1410" y="-5.060000000000002" width="60" height="30" as="geometry" />
        </mxCell>
        <mxCell id="Bi03TDWfDMKd8-1LbUZK-91" value="" style="endArrow=none;html=1;rounded=0;entryX=1;entryY=0.5;entryDx=0;entryDy=0;" edge="1" parent="1" target="Bi03TDWfDMKd8-1LbUZK-71">
          <mxGeometry width="50" height="50" relative="1" as="geometry">
            <mxPoint x="1600" y="-430.06" as="sourcePoint" />
            <mxPoint x="1570" y="-440.06" as="targetPoint" />
          </mxGeometry>
        </mxCell>
        <mxCell id="Bi03TDWfDMKd8-1LbUZK-93" value="" style="endArrow=none;html=1;rounded=0;exitX=1;exitY=0.5;exitDx=0;exitDy=0;" edge="1" parent="1" source="Bi03TDWfDMKd8-1LbUZK-75">
          <mxGeometry width="50" height="50" relative="1" as="geometry">
            <mxPoint x="1520" y="-160.06" as="sourcePoint" />
            <mxPoint x="1600" y="-205.06" as="targetPoint" />
          </mxGeometry>
        </mxCell>
        <mxCell id="Bi03TDWfDMKd8-1LbUZK-94" value="" style="endArrow=none;html=1;rounded=0;exitX=1;exitY=0.5;exitDx=0;exitDy=0;" edge="1" parent="1" source="Bi03TDWfDMKd8-1LbUZK-77">
          <mxGeometry width="50" height="50" relative="1" as="geometry">
            <mxPoint x="1520" y="-50.06" as="sourcePoint" />
            <mxPoint x="1600" y="-95.06" as="targetPoint" />
          </mxGeometry>
        </mxCell>
        <mxCell id="Bi03TDWfDMKd8-1LbUZK-97" value="" style="endArrow=none;html=1;rounded=0;entryX=1;entryY=0.5;entryDx=0;entryDy=0;" edge="1" parent="1" target="Bi03TDWfDMKd8-1LbUZK-79">
          <mxGeometry width="50" height="50" relative="1" as="geometry">
            <mxPoint x="1600" y="24.939999999999998" as="sourcePoint" />
            <mxPoint x="1570" y="29.939999999999998" as="targetPoint" />
          </mxGeometry>
        </mxCell>
        <mxCell id="Bi03TDWfDMKd8-1LbUZK-106" value="" style="endArrow=none;html=1;rounded=0;entryX=0.5;entryY=1;entryDx=0;entryDy=0;" edge="1" parent="1" target="Bi03TDWfDMKd8-1LbUZK-67">
          <mxGeometry width="50" height="50" relative="1" as="geometry">
            <mxPoint x="1370" y="89.94" as="sourcePoint" />
            <mxPoint x="1360" y="39.94" as="targetPoint" />
          </mxGeometry>
        </mxCell>
        <mxCell id="Bi03TDWfDMKd8-1LbUZK-107" value="nej" style="text;html=1;align=center;verticalAlign=middle;whiteSpace=wrap;rounded=0;" vertex="1" parent="1">
          <mxGeometry x="1320" y="-730" width="60" height="30" as="geometry" />
        </mxCell>
        <mxCell id="Bi03TDWfDMKd8-1LbUZK-108" value="nej" style="text;html=1;align=center;verticalAlign=middle;whiteSpace=wrap;rounded=0;" vertex="1" parent="1">
          <mxGeometry x="1330" y="-505.06" width="60" height="30" as="geometry" />
        </mxCell>
        <mxCell id="Bi03TDWfDMKd8-1LbUZK-109" value="nej" style="text;html=1;align=center;verticalAlign=middle;whiteSpace=wrap;rounded=0;" vertex="1" parent="1">
          <mxGeometry x="1330" y="-390.06" width="60" height="30" as="geometry" />
        </mxCell>
        <mxCell id="Bi03TDWfDMKd8-1LbUZK-113" value="nej" style="text;html=1;align=center;verticalAlign=middle;whiteSpace=wrap;rounded=0;" vertex="1" parent="1">
          <mxGeometry x="1330" y="-280.06" width="60" height="30" as="geometry" />
        </mxCell>
        <mxCell id="Bi03TDWfDMKd8-1LbUZK-117" value="nej" style="text;html=1;align=center;verticalAlign=middle;whiteSpace=wrap;rounded=0;" vertex="1" parent="1">
          <mxGeometry x="1330" y="-170.06" width="60" height="30" as="geometry" />
        </mxCell>
        <mxCell id="Bi03TDWfDMKd8-1LbUZK-118" value="nej" style="text;html=1;align=center;verticalAlign=middle;whiteSpace=wrap;rounded=0;" vertex="1" parent="1">
          <mxGeometry x="1330" y="-50.06" width="60" height="30" as="geometry" />
        </mxCell>
        <mxCell id="Bi03TDWfDMKd8-1LbUZK-119" value="nej" style="text;html=1;align=center;verticalAlign=middle;whiteSpace=wrap;rounded=0;" vertex="1" parent="1">
          <mxGeometry x="1330" y="59.94" width="60" height="30" as="geometry" />
        </mxCell>
        <mxCell id="Bi03TDWfDMKd8-1LbUZK-137" value="" style="edgeStyle=orthogonalEdgeStyle;rounded=0;orthogonalLoop=1;jettySize=auto;html=1;" edge="1" parent="1" source="Bi03TDWfDMKd8-1LbUZK-128" target="Bi03TDWfDMKd8-1LbUZK-136">
          <mxGeometry relative="1" as="geometry" />
        </mxCell>
        <mxCell id="Bi03TDWfDMKd8-1LbUZK-128" value="&lt;font style=&quot;font-size: 11px; line-height: 90%;&quot;&gt;Er der en fjene indefor rækkevide&lt;/font&gt;" style="rhombus;whiteSpace=wrap;html=1;align=center;" vertex="1" parent="1">
          <mxGeometry x="1630" y="-363.81" width="106" height="97.5" as="geometry" />
        </mxCell>
        <mxCell id="Bi03TDWfDMKd8-1LbUZK-134" value="" style="endArrow=none;html=1;rounded=0;entryX=0.5;entryY=1;entryDx=0;entryDy=0;" edge="1" parent="1" target="Bi03TDWfDMKd8-1LbUZK-128">
          <mxGeometry width="50" height="50" relative="1" as="geometry">
            <mxPoint x="1600" y="-240.06" as="sourcePoint" />
            <mxPoint x="1560" y="-40.06" as="targetPoint" />
            <Array as="points">
              <mxPoint x="1683" y="-240.06" />
            </Array>
          </mxGeometry>
        </mxCell>
        <mxCell id="Bi03TDWfDMKd8-1LbUZK-135" value="nej" style="text;html=1;align=center;verticalAlign=middle;whiteSpace=wrap;rounded=0;" vertex="1" parent="1">
          <mxGeometry x="1640" y="-265.06" width="60" height="30" as="geometry" />
        </mxCell>
        <mxCell id="Bi03TDWfDMKd8-1LbUZK-149" value="" style="edgeStyle=orthogonalEdgeStyle;rounded=0;orthogonalLoop=1;jettySize=auto;html=1;" edge="1" parent="1" source="Bi03TDWfDMKd8-1LbUZK-136" target="Bi03TDWfDMKd8-1LbUZK-148">
          <mxGeometry relative="1" as="geometry" />
        </mxCell>
        <mxCell id="Bi03TDWfDMKd8-1LbUZK-136" value="er fjenden i live" style="rhombus;whiteSpace=wrap;html=1;align=center;" vertex="1" parent="1">
          <mxGeometry x="1770" y="-363.81" width="106" height="97.5" as="geometry" />
        </mxCell>
        <mxCell id="Bi03TDWfDMKd8-1LbUZK-144" value="" style="endArrow=none;html=1;rounded=0;exitX=0.667;exitY=0.833;exitDx=0;exitDy=0;exitPerimeter=0;entryX=0.5;entryY=1;entryDx=0;entryDy=0;" edge="1" parent="1" source="Bi03TDWfDMKd8-1LbUZK-135" target="Bi03TDWfDMKd8-1LbUZK-136">
          <mxGeometry width="50" height="50" relative="1" as="geometry">
            <mxPoint x="1790" y="-230.06" as="sourcePoint" />
            <mxPoint x="1840" y="-280.06" as="targetPoint" />
            <Array as="points">
              <mxPoint x="1823" y="-240.06" />
            </Array>
          </mxGeometry>
        </mxCell>
        <mxCell id="Bi03TDWfDMKd8-1LbUZK-145" value="nej" style="text;html=1;align=center;verticalAlign=middle;whiteSpace=wrap;rounded=0;" vertex="1" parent="1">
          <mxGeometry x="1780" y="-265.06" width="60" height="30" as="geometry" />
        </mxCell>
        <mxCell id="Bi03TDWfDMKd8-1LbUZK-155" value="" style="edgeStyle=orthogonalEdgeStyle;rounded=0;orthogonalLoop=1;jettySize=auto;html=1;" edge="1" parent="1" source="Bi03TDWfDMKd8-1LbUZK-148" target="Bi03TDWfDMKd8-1LbUZK-154">
          <mxGeometry relative="1" as="geometry" />
        </mxCell>
        <mxCell id="Bi03TDWfDMKd8-1LbUZK-148" value="Ændre fjendens heath med -10" style="whiteSpace=wrap;html=1;" vertex="1" parent="1">
          <mxGeometry x="1900" y="-345.06" width="120" height="60" as="geometry" />
        </mxCell>
        <mxCell id="Bi03TDWfDMKd8-1LbUZK-158" style="edgeStyle=orthogonalEdgeStyle;rounded=0;orthogonalLoop=1;jettySize=auto;html=1;exitX=1;exitY=0.5;exitDx=0;exitDy=0;entryX=0;entryY=0.5;entryDx=0;entryDy=0;" edge="1" parent="1" source="Bi03TDWfDMKd8-1LbUZK-154" target="Bi03TDWfDMKd8-1LbUZK-157">
          <mxGeometry relative="1" as="geometry" />
        </mxCell>
        <mxCell id="Bi03TDWfDMKd8-1LbUZK-154" value="Har fjenden =&amp;lt; 0 heath" style="rhombus;whiteSpace=wrap;html=1;" vertex="1" parent="1">
          <mxGeometry x="2050" y="-365.06" width="110" height="100" as="geometry" />
        </mxCell>
        <mxCell id="Bi03TDWfDMKd8-1LbUZK-156" value="" style="endArrow=none;html=1;rounded=0;entryX=0.5;entryY=1;entryDx=0;entryDy=0;" edge="1" parent="1" target="Bi03TDWfDMKd8-1LbUZK-154">
          <mxGeometry width="50" height="50" relative="1" as="geometry">
            <mxPoint x="1760" y="-240.06" as="sourcePoint" />
            <mxPoint x="2140" y="-190.06" as="targetPoint" />
            <Array as="points">
              <mxPoint x="2105" y="-240.06" />
            </Array>
          </mxGeometry>
        </mxCell>
        <mxCell id="Bi03TDWfDMKd8-1LbUZK-157" value="Fjenden dør" style="rounded=0;whiteSpace=wrap;html=1;" vertex="1" parent="1">
          <mxGeometry x="2200" y="-345.06" width="120" height="60" as="geometry" />
        </mxCell>
        <mxCell id="Bi03TDWfDMKd8-1LbUZK-159" value="" style="endArrow=none;html=1;rounded=0;entryX=0.5;entryY=1;entryDx=0;entryDy=0;" edge="1" parent="1" target="Bi03TDWfDMKd8-1LbUZK-157">
          <mxGeometry width="50" height="50" relative="1" as="geometry">
            <mxPoint x="2100" y="-240.06" as="sourcePoint" />
            <mxPoint x="2180" y="-260.06" as="targetPoint" />
            <Array as="points">
              <mxPoint x="2260" y="-240.06" />
            </Array>
          </mxGeometry>
        </mxCell>
        <mxCell id="Bi03TDWfDMKd8-1LbUZK-160" value="ja" style="text;html=1;align=center;verticalAlign=middle;whiteSpace=wrap;rounded=0;" vertex="1" parent="1">
          <mxGeometry x="1720" y="-340.06" width="60" height="30" as="geometry" />
        </mxCell>
        <mxCell id="Bi03TDWfDMKd8-1LbUZK-161" value="ja" style="text;html=1;align=center;verticalAlign=middle;whiteSpace=wrap;rounded=0;" vertex="1" parent="1">
          <mxGeometry x="1860" y="-340.06" width="60" height="30" as="geometry" />
        </mxCell>
        <mxCell id="Bi03TDWfDMKd8-1LbUZK-162" value="ja" style="text;html=1;align=center;verticalAlign=middle;whiteSpace=wrap;rounded=0;" vertex="1" parent="1">
          <mxGeometry x="2150" y="-340.06" width="60" height="30" as="geometry" />
        </mxCell>
        <mxCell id="Bi03TDWfDMKd8-1LbUZK-163" value="nej" style="text;html=1;align=center;verticalAlign=middle;whiteSpace=wrap;rounded=0;" vertex="1" parent="1">
          <mxGeometry x="2060" y="-270.06" width="60" height="30" as="geometry" />
        </mxCell>
        <mxCell id="Bi03TDWfDMKd8-1LbUZK-164" value="bliver karakteren angrebet" style="rhombus;whiteSpace=wrap;html=1;" vertex="1" parent="1">
          <mxGeometry x="1315" y="-700" width="110" height="90" as="geometry" />
        </mxCell>
        <mxCell id="Bi03TDWfDMKd8-1LbUZK-166" value="nej" style="text;html=1;align=center;verticalAlign=middle;whiteSpace=wrap;rounded=0;" vertex="1" parent="1">
          <mxGeometry x="1320" y="-614" width="60" height="30" as="geometry" />
        </mxCell>
      </root>
    </mxGraphModel>
  </diagram>
</mxfile>
